<svg width="128" height="128" viewBox="0 0 128 128" fill="none" xmlns="http://www.w3.org/2000/svg">
<g clip-path="url(#clip0_218_298)">
<path d="M44.41 62.3357L22.8297 62.3231L43.7912 5.0582C44.1489 3.74653 44.8644 2.61372 45.9376 1.65977C47.13 0.586582 48.7398 0.0499878 50.7669 0.0499878H77.2389C79.266 0.0499878 80.8162 0.586582 81.8893 1.65977C83.0818 2.61372 83.8569 3.74653 84.2146 5.0582L105.104 62.3711L83.4346 62.3584C82.711 52.2131 74.2512 44.2072 63.9215 44.2072C53.5995 44.2072 45.1447 52.2011 44.41 62.3357Z" fill="#C5FD01"/>
<path d="M5.33529 125.255C4.38134 125.255 3.48702 124.898 2.65232 124.182C1.93686 123.347 1.57913 122.453 1.57913 121.499C1.57913 120.903 1.63875 120.366 1.758 119.889L21.8069 65.1173L44.4047 65.1304C45.103 75.3005 53.5741 83.3338 63.9215 83.3338C74.2612 83.3338 82.7273 75.3125 83.4367 65.1532L106.123 65.1664L126.069 119.889C126.307 120.366 126.427 120.903 126.427 121.499C126.427 122.453 126.009 123.347 125.175 124.182C124.459 124.898 123.565 125.255 122.492 125.255H86.3449V114.076C86.3449 110.989 83.8424 108.487 80.7554 108.487H47.2183C44.1313 108.487 41.6288 110.989 41.6288 114.076V125.255H5.33529Z" fill="#C5FD01"/>
<path d="M80.6313 62.3568C79.9135 53.7574 72.7064 47.002 63.9215 47.002C55.1433 47.002 47.9404 53.7472 47.2133 62.3373L59.9781 62.3448C60.5615 60.7314 62.1068 59.5784 63.9215 59.5784C65.7379 59.5784 67.2845 60.7336 67.8666 62.3494L80.6313 62.3568Z" fill="#C5FD01"/>
<path d="M63.9215 67.9627C62.0856 67.9627 60.5254 66.7825 59.958 65.1395L47.2074 65.1321C47.9004 73.7563 55.1189 80.5391 63.9215 80.5391C72.7175 80.5391 79.9317 73.7665 80.634 65.1516L67.8834 65.1441C67.3147 66.7848 65.7557 67.9627 63.9215 67.9627Z" fill="#C5FD01"/>
<path d="M44.4235 114.076C44.4235 112.533 45.6748 111.281 47.2183 111.281H80.7554C82.2989 111.281 83.5502 112.533 83.5502 114.076V125.255C83.5502 126.799 82.2989 128.05 80.7554 128.05H47.2183C45.6748 128.05 44.4235 126.799 44.4235 125.255V114.076Z" fill="#C5FD01"/>
</g>
<defs>
<clipPath id="clip0_218_298">
<rect width="128" height="128" fill="white"/>
</clipPath>
</defs>
</svg>